<svg width="155" height="28" viewBox="0 0 155 28" fill="none" xmlns="http://www.w3.org/2000/svg">
<rect x="1.5" y="1.5" width="152" height="25" rx="12.5" stroke="url(#paint0_linear_3_704)" stroke-width="3"/>
<path d="M78.1044 19L74.7536 14.5504H73.8487V19H72.0043V8.81818H73.8487V13.0043H74.3111L77.9304 8.81818H80.2024L76.1804 13.4616L80.3764 19H78.1044ZM84.3201 19.1491C83.5744 19.1491 82.9281 18.9851 82.3812 18.657C81.8343 18.3288 81.4101 17.8698 81.1085 17.2798C80.8102 16.6899 80.661 16.0005 80.661 15.2116C80.661 14.4228 80.8102 13.7318 81.1085 13.1385C81.4101 12.5452 81.8343 12.0845 82.3812 11.7564C82.9281 11.4283 83.5744 11.2642 84.3201 11.2642C85.0659 11.2642 85.7122 11.4283 86.2591 11.7564C86.8059 12.0845 87.2285 12.5452 87.5268 13.1385C87.8284 13.7318 87.9792 14.4228 87.9792 15.2116C87.9792 16.0005 87.8284 16.6899 87.5268 17.2798C87.2285 17.8698 86.8059 18.3288 86.2591 18.657C85.7122 18.9851 85.0659 19.1491 84.3201 19.1491ZM84.3301 17.7074C84.7344 17.7074 85.0725 17.5964 85.3443 17.3743C85.6161 17.1489 85.8182 16.8473 85.9508 16.4695C86.0867 16.0916 86.1547 15.6707 86.1547 15.2067C86.1547 14.7393 86.0867 14.3168 85.9508 13.9389C85.8182 13.5578 85.6161 13.2545 85.3443 13.0291C85.0725 12.8037 84.7344 12.6911 84.3301 12.6911C83.9158 12.6911 83.5711 12.8037 83.296 13.0291C83.0242 13.2545 82.8204 13.5578 82.6845 13.9389C82.5519 14.3168 82.4856 14.7393 82.4856 15.2067C82.4856 15.6707 82.5519 16.0916 82.6845 16.4695C82.8204 16.8473 83.0242 17.1489 83.296 17.3743C83.5711 17.5964 83.9158 17.7074 84.3301 17.7074ZM94.7518 14.4361V15.9126H90.685V14.4361H94.7518ZM91.2418 11.3636V19H89.5067V11.3636H91.2418ZM95.93 11.3636V19H94.1999V11.3636H95.93ZM96.8958 12.8402V11.3636H103.578V12.8402H101.107V19H99.3667V12.8402H96.8958ZM106.894 19.1541C106.41 19.1541 105.974 19.0679 105.586 18.8956C105.202 18.7199 104.897 18.4614 104.671 18.12C104.449 17.7786 104.338 17.3577 104.338 16.8572C104.338 16.4264 104.418 16.0701 104.577 15.7884C104.736 15.5066 104.953 15.2812 105.228 15.1122C105.503 14.9432 105.813 14.8156 106.158 14.7294C106.506 14.6399 106.865 14.5753 107.237 14.5355C107.684 14.4891 108.047 14.4477 108.325 14.4112C108.604 14.3714 108.806 14.3118 108.932 14.2322C109.061 14.1494 109.126 14.0218 109.126 13.8494V13.8196C109.126 13.4451 109.015 13.1551 108.793 12.9496C108.571 12.7441 108.251 12.6413 107.833 12.6413C107.392 12.6413 107.043 12.7375 106.784 12.9297C106.529 13.1219 106.357 13.349 106.267 13.6108L104.587 13.3722C104.719 12.9081 104.938 12.5204 105.243 12.2088C105.548 11.8939 105.921 11.6586 106.362 11.5028C106.802 11.3438 107.29 11.2642 107.823 11.2642C108.191 11.2642 108.557 11.3073 108.922 11.3935C109.287 11.4796 109.62 11.6222 109.921 11.821C110.223 12.0166 110.465 12.2834 110.647 12.6214C110.833 12.9595 110.926 13.3821 110.926 13.8892V19H109.195V17.951H109.136C109.026 18.1631 108.872 18.362 108.673 18.5476C108.478 18.7299 108.231 18.8774 107.933 18.9901C107.638 19.0994 107.291 19.1541 106.894 19.1541ZM107.361 17.8317C107.722 17.8317 108.035 17.7604 108.301 17.6179C108.566 17.4721 108.77 17.2798 108.912 17.0412C109.058 16.8026 109.131 16.5424 109.131 16.2607V15.3608C109.075 15.4072 108.978 15.4503 108.843 15.4901C108.71 15.5298 108.561 15.5646 108.395 15.5945C108.229 15.6243 108.065 15.6508 107.903 15.674C107.74 15.6972 107.6 15.7171 107.48 15.7337C107.212 15.7701 106.972 15.8298 106.759 15.9126C106.547 15.9955 106.38 16.1115 106.257 16.2607C106.135 16.4065 106.073 16.5954 106.073 16.8274C106.073 17.1589 106.194 17.4091 106.436 17.5781C106.678 17.7472 106.986 17.8317 107.361 17.8317ZM112.735 19V11.3636H114.535V14.446H115.191L117.488 11.3636H119.656L116.827 15.1122L119.686 19H117.508L115.415 16.1214H114.535V19H112.735ZM120.288 12.8402V11.3636H126.97V12.8402H124.499V19H122.759V12.8402H120.288ZM129.621 13.8494H131.873C132.848 13.8494 133.602 14.0864 134.135 14.5604C134.669 15.0343 134.938 15.6558 134.941 16.4247C134.938 16.9252 134.815 17.3693 134.573 17.7571C134.334 18.1449 133.986 18.4498 133.529 18.6719C133.075 18.8906 132.523 19 131.873 19H128.403V11.3636H130.138V17.5234H131.873C132.265 17.5234 132.586 17.424 132.838 17.2251C133.09 17.023 133.216 16.7644 133.216 16.4496C133.216 16.1181 133.09 15.848 132.838 15.6392C132.586 15.4304 132.265 15.326 131.873 15.326H129.621V13.8494ZM135.89 19V11.3636H137.69V19H135.89Z" fill="#5C9499"/>
<defs>
<linearGradient id="paint0_linear_3_704" x1="155" y1="14" x2="16" y2="14" gradientUnits="userSpaceOnUse">
<stop stop-color="#5C9499"/>
<stop offset="1" stop-color="#477074" stop-opacity="0"/>
</linearGradient>
</defs>
</svg>
