<svg width="156" height="171" viewBox="0 0 156 171" fill="none" xmlns="http://www.w3.org/2000/svg">
<path d="M155.136 64.5883H109.57C109.247 60.818 108.385 57.3979 106.985 54.3279C105.638 51.2578 103.753 48.6187 101.329 46.4104C98.9593 44.1483 96.0778 42.4248 92.6846 41.2398C89.2914 40.001 85.4404 39.3816 81.1316 39.3816C73.5912 39.3816 67.2087 41.2129 61.9843 44.8754C56.8137 48.5379 52.8819 53.7893 50.1889 60.6295C47.5497 67.4698 46.2301 75.6835 46.2301 85.2706C46.2301 95.3963 47.5766 103.879 50.2697 110.72C53.0165 117.506 56.9753 122.623 62.1459 126.07C67.3164 129.463 73.5373 131.16 80.8084 131.16C84.9557 131.16 88.672 130.648 91.9575 129.625C95.243 128.547 98.0976 127.012 100.521 125.019C102.945 123.027 104.911 120.63 106.419 117.829C107.981 114.975 109.031 111.77 109.57 108.215L155.136 108.538C154.597 115.54 152.631 122.677 149.238 129.948C145.845 137.165 141.024 143.844 134.776 149.984C128.583 156.07 120.907 160.971 111.751 164.688C102.595 168.404 91.9575 170.262 79.839 170.262C64.6504 170.262 51.0237 167.004 38.959 160.486C26.9482 153.969 17.4418 144.382 10.44 131.725C3.492 119.068 0.018013 103.583 0.018013 85.2706C0.018013 66.8504 3.57279 51.3386 10.6823 38.7353C17.7919 26.0782 27.379 16.518 39.4437 10.0547C51.5084 3.53762 64.9735 0.279077 79.839 0.279077C90.2878 0.279077 99.9019 1.70637 108.681 4.56096C117.46 7.41557 125.162 11.5897 131.787 17.0835C138.412 22.5234 143.744 29.229 147.784 37.2003C151.823 45.1716 154.274 54.3009 155.136 64.5883Z" fill="white"/>
</svg>
