<svg width="17" height="19" viewBox="0 0 17 19" fill="none" xmlns="http://www.w3.org/2000/svg">
<path d="M16.4205 7.09091H11.6136C11.5795 6.69318 11.4886 6.33239 11.3409 6.00852C11.1989 5.68466 11 5.40625 10.7443 5.17329C10.4943 4.93466 10.1903 4.75284 9.83239 4.62784C9.47443 4.49716 9.06818 4.43182 8.61364 4.43182C7.81818 4.43182 7.14489 4.625 6.59375 5.01136C6.0483 5.39773 5.63352 5.9517 5.34943 6.6733C5.07102 7.39489 4.93182 8.26136 4.93182 9.27273C4.93182 10.3409 5.07386 11.2358 5.35795 11.9574C5.64773 12.6733 6.06534 13.2131 6.6108 13.5767C7.15625 13.9347 7.8125 14.1136 8.57955 14.1136C9.01705 14.1136 9.40909 14.0597 9.75568 13.9517C10.1023 13.8381 10.4034 13.6761 10.6591 13.4659C10.9148 13.2557 11.1222 13.0028 11.2812 12.7074C11.446 12.4062 11.5568 12.0682 11.6136 11.6932L16.4205 11.7273C16.3636 12.4659 16.1563 13.2187 15.7983 13.9858C15.4403 14.7472 14.9318 15.4517 14.2727 16.0994C13.6193 16.7415 12.8097 17.2585 11.8438 17.6506C10.8778 18.0426 9.75568 18.2386 8.47727 18.2386C6.875 18.2386 5.4375 17.8949 4.16477 17.2074C2.89773 16.5199 1.89489 15.5085 1.15625 14.1733C0.423295 12.8381 0.0568182 11.2045 0.0568182 9.27273C0.0568182 7.32955 0.431818 5.69318 1.18182 4.36364C1.93182 3.02841 2.94318 2.01989 4.21591 1.33807C5.48864 0.650568 6.90909 0.306818 8.47727 0.306818C9.57955 0.306818 10.5938 0.457386 11.5199 0.758522C12.446 1.05966 13.2585 1.5 13.9574 2.07954C14.6563 2.65341 15.2188 3.3608 15.6449 4.2017C16.071 5.04261 16.3295 6.00568 16.4205 7.09091Z" fill="black"/>
</svg>
